<svg width="25" height="25" viewBox="0 0 25 25" fill="none" xmlns="http://www.w3.org/2000/svg">
<path d="M21.499 9.93652C20.7666 9.93652 20.1221 10.2393 19.6484 10.7129C17.9053 9.50684 15.5566 8.73047 12.9541 8.64746L14.3066 2.55371L18.6133 3.52051C18.6133 4.5752 19.4726 5.43457 20.5273 5.43457C21.6015 5.43457 22.4658 4.55078 22.4658 3.49609C22.4658 2.44141 21.6064 1.55762 20.5273 1.55762C19.7754 1.55762 19.126 2.01172 18.8037 2.63184L14.0478 1.57715C13.8086 1.51367 13.5742 1.68457 13.5107 1.92383L12.0264 8.64258C9.44334 8.75 7.11912 9.52637 5.37108 10.7324C4.89744 10.2393 4.2285 9.93652 3.49608 9.93652C0.781234 9.93652 -0.107438 13.5791 2.37791 14.8242C2.29002 15.21 2.25096 15.6201 2.25096 16.0303C2.25096 20.1221 6.86034 23.4375 12.5195 23.4375C18.2031 23.4375 22.8125 20.1221 22.8125 16.0303C22.8125 15.6201 22.7685 15.1904 22.6611 14.8047C25.0976 13.5547 24.1992 9.93652 21.499 9.93652ZM6.31834 15.083C6.31834 14.0088 7.17772 13.1445 8.25682 13.1445C9.31151 13.1445 10.1709 14.0039 10.1709 15.083C10.1709 16.1377 9.31151 16.9971 8.25682 16.9971C7.1826 17.002 6.31834 16.1377 6.31834 15.083ZM16.7822 19.6484C15.0049 21.4258 9.99022 21.4258 8.21287 19.6484C8.01756 19.4775 8.01756 19.1748 8.21287 18.9795C8.38377 18.8086 8.68651 18.8086 8.85741 18.9795C10.2148 20.3711 14.7168 20.3955 16.1328 18.9795C16.3037 18.8086 16.6064 18.8086 16.7773 18.9795C16.9775 19.1748 16.9775 19.4775 16.7822 19.6484ZM16.7431 17.002C15.6885 17.002 14.8291 16.1426 14.8291 15.0879C14.8291 14.0137 15.6885 13.1494 16.7431 13.1494C17.8174 13.1494 18.6816 14.0088 18.6816 15.0879C18.6767 16.1377 17.8174 17.002 16.7431 17.002Z" fill="white"/>
</svg>
