<svg width="33" height="31" viewBox="0 0 33 31" fill="none" xmlns="http://www.w3.org/2000/svg">
<path d="M31.2632 25.8333V27.5556C31.2632 29.45 29.7 31 27.7895 31H3.47368C1.54579 31 0 29.45 0 27.5556V3.44444C0 1.55 1.54579 0 3.47368 0H27.7895C29.7 0 31.2632 1.55 31.2632 3.44444V5.16667H15.6316C13.7037 5.16667 12.1579 6.71667 12.1579 8.61111V22.3889C12.1579 24.2833 13.7037 25.8333 15.6316 25.8333H31.2632ZM15.6316 22.3889H33V8.61111H15.6316V22.3889ZM22.5789 18.0833C21.1374 18.0833 19.9737 16.9294 19.9737 15.5C19.9737 14.0706 21.1374 12.9167 22.5789 12.9167C24.0205 12.9167 25.1842 14.0706 25.1842 15.5C25.1842 16.9294 24.0205 18.0833 22.5789 18.0833Z" fill="white"/>
</svg>
