<svg width="25" height="25" viewBox="0 0 25 25" fill="none" xmlns="http://www.w3.org/2000/svg">
<path d="M23.8566 6.77427C23.584 5.7478 22.7808 4.93938 21.761 4.66503C19.9124 4.1665 12.5001 4.1665 12.5001 4.1665C12.5001 4.1665 5.08773 4.1665 3.23917 4.66503C2.21933 4.93942 1.41612 5.7478 1.14351 6.77427C0.648193 8.63482 0.648193 12.5167 0.648193 12.5167C0.648193 12.5167 0.648193 16.3985 1.14351 18.2591C1.41612 19.2856 2.21933 20.0603 3.23917 20.3346C5.08773 20.8332 12.5001 20.8332 12.5001 20.8332C12.5001 20.8332 19.9124 20.8332 21.761 20.3346C22.7808 20.0603 23.584 19.2856 23.8566 18.2591C24.3519 16.3985 24.3519 12.5167 24.3519 12.5167C24.3519 12.5167 24.3519 8.63482 23.8566 6.77427ZM10.0758 16.0411V8.99224L16.2711 12.5168L10.0758 16.0411Z" fill="white"/>
</svg>
