<svg width="399" height="541" viewBox="0 0 399 541" fill="none" xmlns="http://www.w3.org/2000/svg">
<g clip-path="url(#clip0_36_178)">
<path d="M181.775 233.356C298.698 141.786 441.352 270.017 310.211 362.167C252.95 402.444 328.211 417.793 234.591 414.701C230.919 379.117 227.523 368.544 235.861 356.369C250.99 334.257 276.887 330.171 291.906 305.96C308.83 278.685 287.765 246.828 245.468 258.422C200.604 270.735 215.237 288.679 181.775 233.356Z" fill="#0500FF"/>
<path d="M219.903 473.447C221.366 429.333 289.615 431.955 288.151 475.711C286.716 519.605 218.44 517.728 219.903 473.447Z" fill="#0500FF"/>
<path d="M254.524 416.468C248.864 416.468 242.266 416.33 234.591 416.082L233.376 416.054L233.265 414.867C232.603 408.407 231.94 402.775 231.36 397.834C228.738 375.335 227.661 366.004 234.756 355.624C242.155 344.802 252.205 338.121 261.923 331.689C272.332 324.788 283.099 317.638 290.747 305.298C298.201 293.289 298.256 279.734 290.912 269.934C282.188 258.257 265.319 254.474 245.827 259.802C234.314 262.95 226.777 266.483 221.283 269.051C205.878 276.256 205.16 275.069 186.883 244.591C185.005 241.444 182.907 237.966 180.588 234.129L179.953 233.08L180.919 232.334C221.476 200.559 270.151 191.946 311.094 209.255C340.967 221.899 360.596 245.999 363.551 273.771C366.919 305.353 348.255 337.183 311.011 363.354C286.246 380.773 286.881 393.306 287.323 401.588C287.516 405.536 287.71 408.932 285.17 411.527C281.746 414.977 273.381 416.468 254.524 416.468ZM235.861 413.349C266.644 414.342 279.51 413.293 283.182 409.539C284.866 407.8 284.755 405.232 284.562 401.671C284.093 392.782 283.403 379.338 309.41 361.035C345.798 335.471 364.047 304.552 360.79 273.992C357.946 247.242 338.951 223.97 310.017 211.74C270.316 194.955 223.161 203.182 183.57 233.687C185.64 237.11 187.518 240.23 189.23 243.101C206.927 272.639 206.954 272.639 220.096 266.483C225.673 263.861 233.348 260.299 245.082 257.069C265.733 251.41 283.679 255.579 293.121 268.195C301.155 278.934 301.127 293.675 293.066 306.678C285.087 319.542 274.071 326.858 263.414 333.925C253.475 340.523 244.088 346.762 236.993 357.142C230.477 366.694 231.443 375.059 234.066 397.475C234.646 402.14 235.253 407.386 235.861 413.349Z" fill="#0500FF"/>
<path d="M254.138 509.032C246.932 509.032 239.726 507.155 233.707 503.4C223.464 497.023 218.081 486.395 218.495 473.42C219.268 449.816 237.959 439.712 255.049 440.265C272.746 440.844 290.277 453.24 289.532 475.794C289.118 488.714 282.989 498.955 272.304 504.67C266.81 507.569 260.488 509.032 254.138 509.032ZM221.283 473.503C220.897 485.456 225.839 495.229 235.198 501.054C245.689 507.569 260.073 508.038 271.006 502.185C280.78 496.968 286.384 487.554 286.771 475.656C287.489 453.957 270.786 443.522 254.966 442.998C239.256 442.473 222.001 451.804 221.283 473.503Z" fill="#0500FF"/>
<path d="M254.662 428.891C248.781 428.891 242.017 428.753 234.176 428.504L222.139 428.118L220.897 416.137C220.262 409.953 219.627 404.542 219.075 399.739L219.019 399.269C216.176 375.004 214.768 362.829 224.486 348.612C227.744 343.836 231.581 339.474 236.247 335.278L238.097 337.321C233.624 341.379 229.897 345.575 226.777 350.158C217.639 363.547 219.019 375.362 221.753 398.938L221.808 399.407C222.36 404.211 222.995 409.649 223.63 415.861L224.624 425.44L234.259 425.771C273.077 427.069 284.976 425.523 292.072 418.29C297.593 412.658 297.235 405.978 296.986 401.091C296.903 399.38 296.793 397.475 297.041 395.432L299.775 395.736C299.554 397.558 299.664 399.269 299.747 400.953C300.023 406.061 300.41 413.763 294.032 420.25C287.792 426.544 278.626 428.891 254.662 428.891Z" fill="#0500FF"/>
<path d="M286.302 290.942L283.596 290.39C283.844 289.12 283.982 287.85 283.982 286.608C283.982 283.93 283.375 281.418 282.16 279.154C279.372 273.937 273.325 270.569 265.54 269.879L265.788 267.118C274.513 267.891 281.36 271.784 284.59 277.829C286.025 280.48 286.743 283.433 286.743 286.581C286.743 288.016 286.605 289.479 286.302 290.942Z" fill="#0500FF"/>
<path d="M210.378 285.117C210.129 285.117 209.881 285.117 209.66 285.117C196.491 284.676 190.969 275.483 176.254 250.941C174.376 247.794 172.278 244.343 169.986 240.506L163.664 230.043L173.299 222.506C197.374 203.651 224.486 192.057 251.736 188.965L252.039 191.698C225.286 194.735 198.644 206.136 174.984 224.687L167.281 230.733L172.333 239.098C174.652 242.908 176.723 246.386 178.6 249.533C192.764 273.164 198.064 281.998 209.743 282.384C215.154 282.633 219.875 280.342 225.369 277.802C227.495 276.808 229.814 275.731 232.492 274.599L233.569 277.139C230.946 278.244 228.655 279.32 226.556 280.314C220.98 282.854 216.12 285.117 210.378 285.117Z" fill="#0500FF"/>
<path d="M353.694 340.689L351.541 338.977C366.229 320.454 373.683 301.019 373.683 281.17C373.683 276.339 373.214 271.48 372.302 266.677L375.008 266.152C375.947 271.094 376.416 276.146 376.416 281.142C376.444 301.654 368.796 321.668 353.694 340.689Z" fill="#0500FF"/>
<path d="M252.371 521.427C229.373 520.654 206.071 504.449 206.071 474.883C206.071 474.248 206.071 473.613 206.098 472.978C207.148 441.12 232.686 427.014 255.463 427.814C272.829 428.394 288.455 437.366 296.241 451.197L293.839 452.549C286.522 439.519 271.779 431.099 255.38 430.575C233.956 429.885 209.853 443.08 208.859 473.088C208.832 473.696 208.832 474.303 208.832 474.91C208.832 502.71 230.781 517.976 252.453 518.694L252.371 521.427Z" fill="#0500FF"/>
<path d="M183.266 319.267C109.661 371.056 206.43 390.794 86.0837 386.819C81.3626 341.048 77.0005 327.466 87.685 311.813C107.121 283.378 140.445 278.133 159.744 247.021C181.472 211.961 154.415 171.021 100.026 185.901C42.324 201.747 61.1531 224.798 18.1665 153.684C168.468 35.9711 351.844 200.808 183.266 319.267Z" fill="#FFB600"/>
<path d="M67.1442 462.35C69.0216 405.619 156.762 408.987 154.884 465.248C153.035 521.676 65.2668 519.246 67.1442 462.35Z" fill="#FFBF00"/>
<path d="M111.76 388.696C104.471 388.696 95.9676 388.53 86.0009 388.199L84.7861 388.172L84.6757 386.985C83.8198 378.703 82.964 371.442 82.2185 365.065C78.8503 336.244 77.4698 324.291 86.5255 311.067C95.9952 297.209 108.888 288.651 121.34 280.397C134.758 271.48 148.645 262.287 158.529 246.331C168.192 230.761 168.275 213.175 158.75 200.421C147.43 185.266 125.619 180.352 100.357 187.281C85.5316 191.339 75.8409 195.894 68.7455 199.179C49.2538 208.289 48.8121 207.544 25.041 167.874C22.6115 163.816 19.9334 159.343 16.9517 154.429L16.3167 153.38L17.283 152.635C69.3253 111.888 131.721 100.818 184.232 123.013C222.526 139.191 247.649 170.055 251.432 205.611C255.739 246.082 231.83 286.829 184.067 320.398C152.041 342.925 152.897 359.157 153.449 369.896C153.697 374.865 153.918 379.172 150.771 382.374C146.436 386.791 135.807 388.696 111.76 388.696ZM87.2985 385.466C127.248 386.764 143.951 385.383 148.783 380.469C151.074 378.123 150.909 374.727 150.66 370.062C150.081 358.716 149.169 341.545 182.438 318.162C229.373 285.173 252.895 245.309 248.671 205.887C244.999 171.352 220.483 141.316 183.156 125.526C131.914 103.855 70.9818 114.511 19.9611 154.015C22.6943 158.515 25.1515 162.656 27.4154 166.41C50.3582 204.673 50.3582 204.673 67.5859 196.612C74.7642 193.271 84.5929 188.661 99.6396 184.548C126.006 177.315 148.949 182.615 160.958 198.71C171.174 212.403 171.146 231.175 160.876 247.739C150.66 264.192 136.552 273.578 122.886 282.633C110.076 291.136 97.983 299.169 88.817 312.558C80.3411 324.953 81.6111 335.747 84.9794 364.679C85.6972 370.807 86.4979 377.654 87.2985 385.466Z" fill="#FFBF00"/>
<path d="M111.152 507.679C110.573 507.679 109.993 507.679 109.413 507.652C87.685 506.934 64.7423 492.441 65.7362 462.295C66.2883 445.841 74.0188 432.811 87.5194 425.578C102.511 417.573 122.334 418.263 136.801 427.262C149.86 435.406 156.762 448.878 156.21 465.276C155.299 494.649 132.549 507.679 111.152 507.679ZM68.5246 462.405C67.5859 490.646 89.1207 504.256 109.523 504.919C130.064 505.636 152.593 493.462 153.504 465.221C154.001 449.872 147.568 437.228 135.393 429.636C121.699 421.134 103.008 420.471 88.8722 428.035C76.2551 434.771 69.0216 446.973 68.5246 462.405Z" fill="#FFBF00"/>
<path d="M111.622 401.119C104.167 401.119 95.5811 400.953 85.6144 400.622L73.577 400.236L72.3346 388.255C71.4787 380.028 70.6505 372.823 69.9051 366.501C66.3711 336.3 64.6042 321.144 76.2826 304.055L76.5587 303.641L78.8226 305.215L78.5466 305.601C67.4479 321.834 69.1872 336.631 72.6383 366.17C73.3837 372.519 74.212 379.724 75.0679 387.978L76.0618 397.558L85.6972 397.889C133.929 399.49 149.39 397.613 157.645 389.193C160.047 386.736 161.621 383.92 162.477 380.58L165.155 381.243C164.189 385.08 162.394 388.31 159.633 391.126C152.51 398.331 140.942 401.119 111.622 401.119Z" fill="#FFBF00"/>
<path d="M155.906 226.454L153.173 226.068C153.366 224.743 153.449 223.417 153.449 222.148C153.449 218.034 152.51 214.197 150.633 210.719C146.05 202.161 136.193 196.998 123.576 196.584C121.726 196.529 119.821 196.557 117.889 196.695L117.696 193.934C119.739 193.796 121.726 193.768 123.659 193.824C137.27 194.265 147.982 199.952 153.062 209.421C155.133 213.314 156.21 217.593 156.21 222.148C156.21 223.555 156.127 225.019 155.906 226.454Z" fill="#FFBF00"/>
<path d="M54.9136 216.295C54.6375 216.295 54.3614 216.295 54.0853 216.295C39.2871 215.798 33.0199 205.335 14.3841 174.278C11.9545 170.22 9.2765 165.776 6.32238 160.862L0 150.371L9.63541 142.835C33.5997 124.063 59.3586 111.198 86.1942 104.545L86.8568 107.223C60.4077 113.765 34.9801 126.492 11.3471 145.016L3.64434 151.061L8.69672 159.426C11.6785 164.34 14.3565 168.812 16.7584 172.843C34.8145 202.961 40.8884 213.093 54.1681 213.534C57.3707 213.645 60.5457 213.038 64.4386 211.602L65.4049 214.197C61.4844 215.633 58.2266 216.295 54.9136 216.295Z" fill="#FFBF00"/>
<path d="M109.275 520.102H108.999C81.3074 519.191 53.2847 499.701 53.2847 464.199C53.2847 463.454 53.2847 462.681 53.3123 461.908C53.5331 455.089 54.7479 448.657 56.929 442.777L59.5242 443.743C57.4536 449.347 56.294 455.476 56.0731 461.991C56.0455 462.736 56.0455 463.454 56.0455 464.172C56.0455 497.907 82.7155 516.458 109.082 517.314L109.275 520.102ZM161.814 491.944L159.385 490.618C163.416 483.303 165.597 474.911 165.9 465.635C165.928 464.917 165.928 464.172 165.928 463.454C165.928 452.218 163.029 442.225 157.314 433.75L159.606 432.204C165.652 441.148 168.689 451.666 168.689 463.454C168.689 464.199 168.689 464.945 168.661 465.718C168.357 475.407 166.066 484.241 161.814 491.944Z" fill="#FFBF00"/>
<path d="M294.777 99.1341C294.777 109.514 286.357 117.906 276.003 117.906C265.65 117.906 257.23 109.486 257.23 99.1341C257.23 88.7541 265.65 80.3618 276.003 80.3618C286.357 80.3618 294.777 88.7541 294.777 99.1341Z" fill="#FFBF00"/>
<path d="M225.259 97.036C229.864 97.036 233.597 93.3034 233.597 88.6989C233.597 84.0945 229.864 80.3618 225.259 80.3618C220.654 80.3618 216.921 84.0945 216.921 88.6989C216.921 93.3034 220.654 97.036 225.259 97.036Z" fill="#FFBF00"/>
<path d="M332.353 66.7797C336.958 66.7797 340.691 63.047 340.691 58.4426C340.691 53.8381 336.958 50.1055 332.353 50.1055C327.748 50.1055 324.015 53.8381 324.015 58.4426C324.015 63.047 327.748 66.7797 332.353 66.7797Z" fill="#FFBF00"/>
<path d="M396.367 140.308C399.849 136.825 399.884 131.215 396.445 127.776C393.005 124.336 387.394 124.371 383.912 127.854C380.429 131.336 380.394 136.947 383.833 140.386C387.273 143.825 392.884 143.79 396.367 140.308Z" fill="#FFBF00"/>
<path d="M38.0723 430.409C38.0723 433.584 35.5047 436.151 32.3297 436.151C29.1547 436.151 26.5871 433.584 26.5871 430.409C26.5871 427.235 29.1547 424.667 32.3297 424.667C35.5047 424.667 38.0723 427.235 38.0723 430.409Z" fill="#FFBF00"/>
<path d="M176.336 531.062C182.39 531.062 187.297 526.155 187.297 520.102C187.297 514.049 182.39 509.142 176.336 509.142C170.283 509.142 165.376 514.049 165.376 520.102C165.376 526.155 170.283 531.062 176.336 531.062Z" fill="#FFBF00"/>
<path d="M66.2607 70.4235C66.2607 77.049 60.877 82.4322 54.251 82.4322C47.6249 82.4322 42.2412 77.049 42.2412 70.4235C42.2412 63.798 47.6249 58.4148 54.251 58.4148C60.877 58.4148 66.2607 63.798 66.2607 70.4235Z" fill="#FFBF00"/>
<path d="M119.463 49.0287C119.463 52.2034 116.895 54.7708 113.72 54.7708C110.545 54.7708 107.977 52.2034 107.977 49.0287C107.977 45.854 110.545 43.2866 113.72 43.2866C116.895 43.3142 119.463 45.8816 119.463 49.0287Z" fill="#FFBF00"/>
<path d="M337.571 151.282C342.176 151.282 345.909 147.55 345.909 142.945C345.909 138.341 342.176 134.608 337.571 134.608C332.966 134.608 329.233 138.341 329.233 142.945C329.233 147.55 332.966 151.282 337.571 151.282Z" fill="#0500FF"/>
<path d="M188.098 11.4842C188.098 17.8336 182.962 22.9684 176.612 22.9684C170.262 22.9684 165.127 17.8336 165.127 11.4842C165.127 5.13477 170.262 0 176.612 0C182.962 0 188.098 5.13477 188.098 11.4842Z" fill="#0500FF"/>
<path d="M223.823 52.7003C223.823 54.7155 222.194 56.3443 220.179 56.3443C218.163 56.3443 216.535 54.7155 216.535 52.7003C216.535 50.685 218.163 49.0562 220.179 49.0562C222.194 49.0286 223.823 50.685 223.823 52.7003Z" fill="#0500FF"/>
<path d="M333.899 414.232C339.952 414.232 344.859 409.325 344.859 403.272C344.859 397.22 339.952 392.313 333.899 392.313C327.845 392.313 322.938 397.22 322.938 403.272C322.938 409.325 327.845 414.232 333.899 414.232Z" fill="#0500FF"/>
<path d="M332.353 481.012C332.353 482.751 330.945 484.131 329.233 484.131C327.521 484.131 326.113 482.723 326.113 481.012C326.113 479.3 327.521 477.892 329.233 477.892C330.945 477.892 332.353 479.272 332.353 481.012Z" fill="#0500FF"/>
<path d="M311.646 501.799C311.646 503.538 310.238 504.919 308.527 504.919C306.787 504.919 305.407 503.511 305.407 501.799C305.407 500.06 306.815 498.68 308.527 498.68C310.238 498.68 311.646 500.088 311.646 501.799Z" fill="#0500FF"/>
<path d="M288.179 541C293.073 541 297.041 537.033 297.041 532.138C297.041 527.244 293.073 523.277 288.179 523.277C283.284 523.277 279.317 527.244 279.317 532.138C279.317 537.033 283.284 541 288.179 541Z" fill="#0500FF"/>
</g>
<defs>
<clipPath id="clip0_36_178">
<rect width="399" height="541" fill="white"/>
</clipPath>
</defs>
</svg>
