<svg width="237" height="62" viewBox="0 0 237 62" fill="none" xmlns="http://www.w3.org/2000/svg">
<path d="M83.3594 26.5586V27.2324C83.3594 28.3132 83.2129 29.2832 82.9199 30.1426C82.627 31.002 82.2135 31.7344 81.6797 32.3398C81.1458 32.9388 80.5078 33.3978 79.7656 33.7168C79.0299 34.0358 78.2129 34.1953 77.3145 34.1953C76.4225 34.1953 75.6055 34.0358 74.8633 33.7168C74.1276 33.3978 73.4896 32.9388 72.9492 32.3398C72.4089 31.7344 71.9889 31.002 71.6895 30.1426C71.3965 29.2832 71.25 28.3132 71.25 27.2324V26.5586C71.25 25.4714 71.3965 24.5013 71.6895 23.6484C71.9824 22.7891 72.3958 22.0566 72.9297 21.4512C73.4701 20.8457 74.1081 20.3835 74.8438 20.0645C75.5859 19.7454 76.403 19.5859 77.2949 19.5859C78.1934 19.5859 79.0104 19.7454 79.7461 20.0645C80.4883 20.3835 81.1263 20.8457 81.6602 21.4512C82.2005 22.0566 82.6172 22.7891 82.9102 23.6484C83.2096 24.5013 83.3594 25.4714 83.3594 26.5586ZM80.4004 27.2324V26.5391C80.4004 25.7839 80.332 25.1198 80.1953 24.5469C80.0586 23.974 79.8568 23.4922 79.5898 23.1016C79.3229 22.7109 78.9974 22.418 78.6133 22.2227C78.2292 22.0208 77.7897 21.9199 77.2949 21.9199C76.8001 21.9199 76.3607 22.0208 75.9766 22.2227C75.599 22.418 75.2767 22.7109 75.0098 23.1016C74.7493 23.4922 74.5508 23.974 74.4141 24.5469C74.2773 25.1198 74.209 25.7839 74.209 26.5391V27.2324C74.209 27.9811 74.2773 28.6452 74.4141 29.2246C74.5508 29.7975 74.7526 30.2826 75.0195 30.6797C75.2865 31.0703 75.612 31.3665 75.9961 31.5684C76.3802 31.7702 76.8197 31.8711 77.3145 31.8711C77.8092 31.8711 78.2487 31.7702 78.6328 31.5684C79.0169 31.3665 79.3392 31.0703 79.5996 30.6797C79.86 30.2826 80.0586 29.7975 80.1953 29.2246C80.332 28.6452 80.4004 27.9811 80.4004 27.2324ZM91.543 31.4707V23.4336H94.3555V34H91.709L91.543 31.4707ZM91.8555 29.3027L92.6855 29.2832C92.6855 29.9863 92.6042 30.6406 92.4414 31.2461C92.2786 31.8451 92.0345 32.3659 91.709 32.8086C91.3835 33.2448 90.9733 33.5866 90.4785 33.834C89.9837 34.0749 89.401 34.1953 88.7305 34.1953C88.2161 34.1953 87.7409 34.1237 87.3047 33.9805C86.875 33.8307 86.5039 33.5996 86.1914 33.2871C85.8854 32.9681 85.6445 32.5612 85.4688 32.0664C85.2995 31.5651 85.2148 30.9629 85.2148 30.2598V23.4336H88.0273V30.2793C88.0273 30.5918 88.0632 30.8555 88.1348 31.0703C88.2129 31.2852 88.3203 31.4609 88.457 31.5977C88.5938 31.7344 88.7533 31.832 88.9355 31.8906C89.1243 31.9492 89.3327 31.9785 89.5605 31.9785C90.14 31.9785 90.5957 31.8613 90.9277 31.627C91.2663 31.3926 91.5039 31.0736 91.6406 30.6699C91.7839 30.2598 91.8555 29.804 91.8555 29.3027ZM99.3164 25.7383V34H96.5039V23.4336H99.1504L99.3164 25.7383ZM102.5 23.3652L102.451 25.9727C102.314 25.9531 102.148 25.9368 101.953 25.9238C101.764 25.9043 101.592 25.8945 101.436 25.8945C101.038 25.8945 100.693 25.9466 100.4 26.0508C100.114 26.1484 99.873 26.2949 99.6777 26.4902C99.4889 26.6855 99.3457 26.9232 99.248 27.2031C99.1569 27.4831 99.1048 27.8021 99.0918 28.1602L98.5254 27.9844C98.5254 27.3008 98.5938 26.6725 98.7305 26.0996C98.8672 25.5202 99.0658 25.0156 99.3262 24.5859C99.5931 24.1562 99.9186 23.8242 100.303 23.5898C100.687 23.3555 101.126 23.2383 101.621 23.2383C101.777 23.2383 101.937 23.2513 102.1 23.2773C102.262 23.2969 102.396 23.3262 102.5 23.3652ZM114.521 28.9316H110.898V26.6465H114.521C115.081 26.6465 115.537 26.5553 115.889 26.373C116.24 26.1842 116.497 25.9238 116.66 25.5918C116.823 25.2598 116.904 24.8854 116.904 24.4688C116.904 24.0456 116.823 23.6517 116.66 23.2871C116.497 22.9225 116.24 22.6296 115.889 22.4082C115.537 22.1868 115.081 22.0762 114.521 22.0762H111.914V34H108.984V19.7812H114.521C115.635 19.7812 116.589 19.9831 117.383 20.3867C118.184 20.7839 118.796 21.334 119.219 22.0371C119.642 22.7402 119.854 23.5443 119.854 24.4492C119.854 25.3672 119.642 26.1615 119.219 26.832C118.796 27.5026 118.184 28.0202 117.383 28.3848C116.589 28.7493 115.635 28.9316 114.521 28.9316ZM124.512 25.7383V34H121.699V23.4336H124.346L124.512 25.7383ZM127.695 23.3652L127.646 25.9727C127.51 25.9531 127.344 25.9368 127.148 25.9238C126.96 25.9043 126.787 25.8945 126.631 25.8945C126.234 25.8945 125.889 25.9466 125.596 26.0508C125.309 26.1484 125.068 26.2949 124.873 26.4902C124.684 26.6855 124.541 26.9232 124.443 27.2031C124.352 27.4831 124.3 27.8021 124.287 28.1602L123.721 27.9844C123.721 27.3008 123.789 26.6725 123.926 26.0996C124.062 25.5202 124.261 25.0156 124.521 24.5859C124.788 24.1562 125.114 23.8242 125.498 23.5898C125.882 23.3555 126.322 23.2383 126.816 23.2383C126.973 23.2383 127.132 23.2513 127.295 23.2773C127.458 23.2969 127.591 23.3262 127.695 23.3652ZM133.691 34.1953C132.871 34.1953 132.135 34.0651 131.484 33.8047C130.833 33.5378 130.28 33.1699 129.824 32.7012C129.375 32.2324 129.03 31.6888 128.789 31.0703C128.548 30.4453 128.428 29.7812 128.428 29.0781V28.6875C128.428 27.8867 128.542 27.1543 128.77 26.4902C128.997 25.8262 129.323 25.25 129.746 24.7617C130.176 24.2734 130.697 23.8991 131.309 23.6387C131.921 23.3717 132.611 23.2383 133.379 23.2383C134.128 23.2383 134.792 23.362 135.371 23.6094C135.951 23.8568 136.436 24.2083 136.826 24.6641C137.223 25.1198 137.523 25.6667 137.725 26.3047C137.926 26.9362 138.027 27.6393 138.027 28.4141V29.5859H129.629V27.7109H135.264V27.4961C135.264 27.1055 135.192 26.7572 135.049 26.4512C134.912 26.1387 134.704 25.8913 134.424 25.709C134.144 25.5267 133.786 25.4355 133.35 25.4355C132.979 25.4355 132.66 25.5169 132.393 25.6797C132.126 25.8424 131.908 26.0703 131.738 26.3633C131.576 26.6562 131.452 27.0013 131.367 27.3984C131.289 27.7891 131.25 28.2188 131.25 28.6875V29.0781C131.25 29.5013 131.309 29.8919 131.426 30.25C131.549 30.6081 131.722 30.9173 131.943 31.1777C132.171 31.4382 132.445 31.64 132.764 31.7832C133.089 31.9264 133.457 31.998 133.867 31.998C134.375 31.998 134.847 31.9004 135.283 31.7051C135.726 31.5033 136.107 31.2005 136.426 30.7969L137.793 32.2812C137.572 32.6003 137.269 32.9062 136.885 33.1992C136.507 33.4922 136.051 33.7331 135.518 33.9219C134.984 34.1042 134.375 34.1953 133.691 34.1953ZM145.342 31.0801C145.342 30.8783 145.283 30.696 145.166 30.5332C145.049 30.3704 144.831 30.2207 144.512 30.084C144.199 29.9408 143.747 29.8105 143.154 29.6934C142.62 29.5762 142.122 29.4297 141.66 29.2539C141.204 29.0716 140.807 28.8535 140.469 28.5996C140.137 28.3457 139.876 28.0462 139.688 27.7012C139.499 27.3496 139.404 26.9492 139.404 26.5C139.404 26.0573 139.499 25.6406 139.688 25.25C139.883 24.8594 140.16 24.5143 140.518 24.2148C140.882 23.9089 141.325 23.6712 141.846 23.502C142.373 23.3262 142.965 23.2383 143.623 23.2383C144.541 23.2383 145.329 23.3848 145.986 23.6777C146.65 23.9707 147.158 24.3743 147.51 24.8887C147.868 25.3965 148.047 25.9759 148.047 26.627H145.234C145.234 26.3535 145.176 26.1094 145.059 25.8945C144.948 25.6732 144.772 25.5007 144.531 25.377C144.297 25.2467 143.991 25.1816 143.613 25.1816C143.301 25.1816 143.031 25.237 142.803 25.3477C142.575 25.4518 142.399 25.5951 142.275 25.7773C142.158 25.9531 142.1 26.1484 142.1 26.3633C142.1 26.526 142.132 26.6725 142.197 26.8027C142.269 26.9264 142.383 27.0404 142.539 27.1445C142.695 27.2487 142.897 27.3464 143.145 27.4375C143.398 27.5221 143.711 27.6003 144.082 27.6719C144.844 27.8281 145.524 28.0332 146.123 28.2871C146.722 28.5345 147.197 28.873 147.549 29.3027C147.9 29.7259 148.076 30.2826 148.076 30.9727C148.076 31.4414 147.972 31.8711 147.764 32.2617C147.555 32.6523 147.256 32.9941 146.865 33.2871C146.475 33.5736 146.006 33.7982 145.459 33.9609C144.919 34.1172 144.31 34.1953 143.633 34.1953C142.65 34.1953 141.816 34.0195 141.133 33.668C140.456 33.3164 139.941 32.8704 139.59 32.3301C139.245 31.7832 139.072 31.2233 139.072 30.6504H141.738C141.751 31.0345 141.849 31.3438 142.031 31.5781C142.22 31.8125 142.458 31.9818 142.744 32.0859C143.037 32.1901 143.353 32.2422 143.691 32.2422C144.056 32.2422 144.359 32.1934 144.6 32.0957C144.84 31.9915 145.023 31.8548 145.146 31.6855C145.277 31.5098 145.342 31.3079 145.342 31.0801ZM155.605 31.6172V26.9102C155.605 26.5716 155.55 26.2819 155.439 26.041C155.329 25.7936 155.156 25.6016 154.922 25.4648C154.694 25.3281 154.398 25.2598 154.033 25.2598C153.721 25.2598 153.451 25.3151 153.223 25.4258C152.995 25.5299 152.819 25.6829 152.695 25.8848C152.572 26.0801 152.51 26.3112 152.51 26.5781H149.697C149.697 26.1289 149.801 25.7025 150.01 25.2988C150.218 24.8952 150.521 24.5404 150.918 24.2344C151.315 23.9219 151.787 23.6777 152.334 23.502C152.887 23.3262 153.506 23.2383 154.189 23.2383C155.01 23.2383 155.739 23.375 156.377 23.6484C157.015 23.9219 157.516 24.332 157.881 24.8789C158.252 25.4258 158.438 26.1094 158.438 26.9297V31.4512C158.438 32.0306 158.473 32.5059 158.545 32.877C158.617 33.2415 158.721 33.5605 158.857 33.834V34H156.016C155.879 33.7135 155.775 33.3555 155.703 32.9258C155.638 32.4896 155.605 32.0534 155.605 31.6172ZM155.977 27.5645L155.996 29.1562H154.424C154.053 29.1562 153.73 29.1986 153.457 29.2832C153.184 29.3678 152.959 29.4883 152.783 29.6445C152.607 29.7943 152.477 29.9701 152.393 30.1719C152.314 30.3737 152.275 30.5951 152.275 30.8359C152.275 31.0768 152.331 31.2949 152.441 31.4902C152.552 31.679 152.712 31.8288 152.92 31.9395C153.128 32.0436 153.372 32.0957 153.652 32.0957C154.076 32.0957 154.443 32.0111 154.756 31.8418C155.068 31.6725 155.309 31.4642 155.479 31.2168C155.654 30.9694 155.745 30.735 155.752 30.5137L156.494 31.7051C156.39 31.972 156.247 32.2487 156.064 32.5352C155.889 32.8216 155.664 33.0918 155.391 33.3457C155.117 33.5931 154.788 33.7982 154.404 33.9609C154.02 34.1172 153.564 34.1953 153.037 34.1953C152.367 34.1953 151.758 34.0618 151.211 33.7949C150.671 33.5215 150.241 33.1471 149.922 32.6719C149.609 32.1901 149.453 31.6432 149.453 31.0312C149.453 30.4779 149.557 29.9863 149.766 29.5566C149.974 29.127 150.28 28.7656 150.684 28.4727C151.094 28.1732 151.605 27.9486 152.217 27.7988C152.829 27.6426 153.538 27.5645 154.346 27.5645H155.977ZM163.574 19V34H160.752V19H163.574ZM170.762 34.1953C169.941 34.1953 169.206 34.0651 168.555 33.8047C167.904 33.5378 167.35 33.1699 166.895 32.7012C166.445 32.2324 166.1 31.6888 165.859 31.0703C165.618 30.4453 165.498 29.7812 165.498 29.0781V28.6875C165.498 27.8867 165.612 27.1543 165.84 26.4902C166.068 25.8262 166.393 25.25 166.816 24.7617C167.246 24.2734 167.767 23.8991 168.379 23.6387C168.991 23.3717 169.681 23.2383 170.449 23.2383C171.198 23.2383 171.862 23.362 172.441 23.6094C173.021 23.8568 173.506 24.2083 173.896 24.6641C174.294 25.1198 174.593 25.6667 174.795 26.3047C174.997 26.9362 175.098 27.6393 175.098 28.4141V29.5859H166.699V27.7109H172.334V27.4961C172.334 27.1055 172.262 26.7572 172.119 26.4512C171.982 26.1387 171.774 25.8913 171.494 25.709C171.214 25.5267 170.856 25.4355 170.42 25.4355C170.049 25.4355 169.73 25.5169 169.463 25.6797C169.196 25.8424 168.978 26.0703 168.809 26.3633C168.646 26.6562 168.522 27.0013 168.438 27.3984C168.359 27.7891 168.32 28.2188 168.32 28.6875V29.0781C168.32 29.5013 168.379 29.8919 168.496 30.25C168.62 30.6081 168.792 30.9173 169.014 31.1777C169.242 31.4382 169.515 31.64 169.834 31.7832C170.16 31.9264 170.527 31.998 170.938 31.998C171.445 31.998 171.917 31.9004 172.354 31.7051C172.796 31.5033 173.177 31.2005 173.496 30.7969L174.863 32.2812C174.642 32.6003 174.339 32.9062 173.955 33.1992C173.577 33.4922 173.122 33.7331 172.588 33.9219C172.054 34.1042 171.445 34.1953 170.762 34.1953ZM191.396 31.7148V34H183.828V31.7148H191.396ZM184.785 19.7812V34H181.855V19.7812H184.785ZM190.41 25.5723V27.7988H183.828V25.5723H190.41ZM191.387 19.7812V22.0762H183.828V19.7812H191.387ZM195.684 25.6895V34H192.871V23.4336H195.508L195.684 25.6895ZM195.273 28.3457H194.512C194.512 27.5645 194.613 26.8613 194.814 26.2363C195.016 25.6048 195.299 25.0677 195.664 24.625C196.029 24.1758 196.462 23.834 196.963 23.5996C197.471 23.3587 198.037 23.2383 198.662 23.2383C199.157 23.2383 199.609 23.3099 200.02 23.4531C200.43 23.5964 200.781 23.8242 201.074 24.1367C201.374 24.4492 201.602 24.8626 201.758 25.377C201.921 25.8913 202.002 26.5195 202.002 27.2617V34H199.17V27.252C199.17 26.7832 199.105 26.4186 198.975 26.1582C198.844 25.8978 198.652 25.7155 198.398 25.6113C198.151 25.5007 197.845 25.4453 197.48 25.4453C197.103 25.4453 196.774 25.5202 196.494 25.6699C196.221 25.8197 195.993 26.028 195.811 26.2949C195.635 26.5553 195.501 26.8613 195.41 27.2129C195.319 27.5645 195.273 27.9421 195.273 28.3457ZM210.381 31.6953V19H213.213V34H210.664L210.381 31.6953ZM203.701 28.8438V28.6387C203.701 27.8314 203.792 27.099 203.975 26.4414C204.157 25.7773 204.424 25.2077 204.775 24.7324C205.127 24.2572 205.56 23.8893 206.074 23.6289C206.589 23.3685 207.174 23.2383 207.832 23.2383C208.451 23.2383 208.991 23.3685 209.453 23.6289C209.922 23.8893 210.319 24.2604 210.645 24.7422C210.977 25.2174 211.243 25.7806 211.445 26.4316C211.647 27.0762 211.794 27.7826 211.885 28.5508V29C211.794 29.7357 211.647 30.4193 211.445 31.0508C211.243 31.6823 210.977 32.2357 210.645 32.7109C210.319 33.1797 209.922 33.5443 209.453 33.8047C208.984 34.0651 208.438 34.1953 207.812 34.1953C207.155 34.1953 206.569 34.0618 206.055 33.7949C205.547 33.528 205.117 33.1536 204.766 32.6719C204.421 32.1901 204.157 31.6237 203.975 30.9727C203.792 30.3216 203.701 29.612 203.701 28.8438ZM206.514 28.6387V28.8438C206.514 29.2799 206.546 29.6868 206.611 30.0645C206.683 30.4421 206.797 30.7773 206.953 31.0703C207.116 31.3568 207.324 31.5814 207.578 31.7441C207.839 31.9004 208.154 31.9785 208.525 31.9785C209.007 31.9785 209.404 31.8711 209.717 31.6562C210.029 31.4349 210.267 31.1322 210.43 30.748C210.599 30.3639 210.697 29.9212 210.723 29.4199V28.1406C210.703 27.7305 210.645 27.3626 210.547 27.0371C210.456 26.7051 210.319 26.4219 210.137 26.1875C209.961 25.9531 209.74 25.7708 209.473 25.6406C209.212 25.5104 208.903 25.4453 208.545 25.4453C208.18 25.4453 207.868 25.5299 207.607 25.6992C207.347 25.862 207.135 26.0866 206.973 26.373C206.816 26.6595 206.699 26.998 206.621 27.3887C206.549 27.7728 206.514 28.1895 206.514 28.6387ZM221.123 31.0801C221.123 30.8783 221.064 30.696 220.947 30.5332C220.83 30.3704 220.612 30.2207 220.293 30.084C219.98 29.9408 219.528 29.8105 218.936 29.6934C218.402 29.5762 217.904 29.4297 217.441 29.2539C216.986 29.0716 216.589 28.8535 216.25 28.5996C215.918 28.3457 215.658 28.0462 215.469 27.7012C215.28 27.3496 215.186 26.9492 215.186 26.5C215.186 26.0573 215.28 25.6406 215.469 25.25C215.664 24.8594 215.941 24.5143 216.299 24.2148C216.663 23.9089 217.106 23.6712 217.627 23.502C218.154 23.3262 218.747 23.2383 219.404 23.2383C220.322 23.2383 221.11 23.3848 221.768 23.6777C222.432 23.9707 222.939 24.3743 223.291 24.8887C223.649 25.3965 223.828 25.9759 223.828 26.627H221.016C221.016 26.3535 220.957 26.1094 220.84 25.8945C220.729 25.6732 220.553 25.5007 220.312 25.377C220.078 25.2467 219.772 25.1816 219.395 25.1816C219.082 25.1816 218.812 25.237 218.584 25.3477C218.356 25.4518 218.18 25.5951 218.057 25.7773C217.939 25.9531 217.881 26.1484 217.881 26.3633C217.881 26.526 217.913 26.6725 217.979 26.8027C218.05 26.9264 218.164 27.0404 218.32 27.1445C218.477 27.2487 218.678 27.3464 218.926 27.4375C219.18 27.5221 219.492 27.6003 219.863 27.6719C220.625 27.8281 221.305 28.0332 221.904 28.2871C222.503 28.5345 222.979 28.873 223.33 29.3027C223.682 29.7259 223.857 30.2826 223.857 30.9727C223.857 31.4414 223.753 31.8711 223.545 32.2617C223.337 32.6523 223.037 32.9941 222.646 33.2871C222.256 33.5736 221.787 33.7982 221.24 33.9609C220.7 34.1172 220.091 34.1953 219.414 34.1953C218.431 34.1953 217.598 34.0195 216.914 33.668C216.237 33.3164 215.723 32.8704 215.371 32.3301C215.026 31.7832 214.854 31.2233 214.854 30.6504H217.52C217.533 31.0345 217.63 31.3438 217.812 31.5781C218.001 31.8125 218.239 31.9818 218.525 32.0859C218.818 32.1901 219.134 32.2422 219.473 32.2422C219.837 32.2422 220.14 32.1934 220.381 32.0957C220.622 31.9915 220.804 31.8548 220.928 31.6855C221.058 31.5098 221.123 31.3079 221.123 31.0801ZM102.988 49.5586V50.2324C102.988 51.3132 102.842 52.2832 102.549 53.1426C102.256 54.002 101.842 54.7344 101.309 55.3398C100.775 55.9388 100.137 56.3978 99.3945 56.7168C98.6589 57.0358 97.8418 57.1953 96.9434 57.1953C96.0514 57.1953 95.2344 57.0358 94.4922 56.7168C93.7565 56.3978 93.1185 55.9388 92.5781 55.3398C92.0378 54.7344 91.6178 54.002 91.3184 53.1426C91.0254 52.2832 90.8789 51.3132 90.8789 50.2324V49.5586C90.8789 48.4714 91.0254 47.5013 91.3184 46.6484C91.6113 45.7891 92.0247 45.0566 92.5586 44.4512C93.099 43.8457 93.737 43.3835 94.4727 43.0645C95.2148 42.7454 96.0319 42.5859 96.9238 42.5859C97.8223 42.5859 98.6393 42.7454 99.375 43.0645C100.117 43.3835 100.755 43.8457 101.289 44.4512C101.829 45.0566 102.246 45.7891 102.539 46.6484C102.839 47.5013 102.988 48.4714 102.988 49.5586ZM100.029 50.2324V49.5391C100.029 48.7839 99.9609 48.1198 99.8242 47.5469C99.6875 46.974 99.4857 46.4922 99.2188 46.1016C98.9518 45.7109 98.6263 45.418 98.2422 45.2227C97.8581 45.0208 97.4186 44.9199 96.9238 44.9199C96.429 44.9199 95.9896 45.0208 95.6055 45.2227C95.2279 45.418 94.9056 45.7109 94.6387 46.1016C94.3783 46.4922 94.1797 46.974 94.043 47.5469C93.9062 48.1198 93.8379 48.7839 93.8379 49.5391V50.2324C93.8379 50.9811 93.9062 51.6452 94.043 52.2246C94.1797 52.7975 94.3815 53.2826 94.6484 53.6797C94.9154 54.0703 95.2409 54.3665 95.625 54.5684C96.0091 54.7702 96.4486 54.8711 96.9434 54.8711C97.4382 54.8711 97.8776 54.7702 98.2617 54.5684C98.6458 54.3665 98.9681 54.0703 99.2285 53.6797C99.4889 53.2826 99.6875 52.7975 99.8242 52.2246C99.9609 51.6452 100.029 50.9811 100.029 50.2324ZM107.676 48.6895V57H104.863V46.4336H107.5L107.676 48.6895ZM107.266 51.3457H106.504C106.504 50.5645 106.605 49.8613 106.807 49.2363C107.008 48.6048 107.292 48.0677 107.656 47.625C108.021 47.1758 108.454 46.834 108.955 46.5996C109.463 46.3587 110.029 46.2383 110.654 46.2383C111.149 46.2383 111.602 46.3099 112.012 46.4531C112.422 46.5964 112.773 46.8242 113.066 47.1367C113.366 47.4492 113.594 47.8626 113.75 48.377C113.913 48.8913 113.994 49.5195 113.994 50.2617V57H111.162V50.252C111.162 49.7832 111.097 49.4186 110.967 49.1582C110.837 48.8978 110.645 48.7155 110.391 48.6113C110.143 48.5007 109.837 48.4453 109.473 48.4453C109.095 48.4453 108.766 48.5202 108.486 48.6699C108.213 48.8197 107.985 49.028 107.803 49.2949C107.627 49.5553 107.493 49.8613 107.402 50.2129C107.311 50.5645 107.266 50.9421 107.266 51.3457Z" fill="white"/>
<path d="M122.627 42.7812H125.107L128.76 53.2207L132.412 42.7812H134.893L129.756 57H127.764L122.627 42.7812ZM121.289 42.7812H123.76L124.209 52.957V57H121.289V42.7812ZM133.76 42.7812H136.24V57H133.311V52.957L133.76 42.7812ZM144.336 54.6172V49.9102C144.336 49.5716 144.281 49.2819 144.17 49.041C144.059 48.7936 143.887 48.6016 143.652 48.4648C143.424 48.3281 143.128 48.2598 142.764 48.2598C142.451 48.2598 142.181 48.3151 141.953 48.4258C141.725 48.5299 141.549 48.6829 141.426 48.8848C141.302 49.0801 141.24 49.3112 141.24 49.5781H138.428C138.428 49.1289 138.532 48.7025 138.74 48.2988C138.949 47.8952 139.251 47.5404 139.648 47.2344C140.046 46.9219 140.518 46.6777 141.064 46.502C141.618 46.3262 142.236 46.2383 142.92 46.2383C143.74 46.2383 144.469 46.375 145.107 46.6484C145.745 46.9219 146.247 47.332 146.611 47.8789C146.982 48.4258 147.168 49.1094 147.168 49.9297V54.4512C147.168 55.0306 147.204 55.5059 147.275 55.877C147.347 56.2415 147.451 56.5605 147.588 56.834V57H144.746C144.609 56.7135 144.505 56.3555 144.434 55.9258C144.368 55.4896 144.336 55.0534 144.336 54.6172ZM144.707 50.5645L144.727 52.1562H143.154C142.783 52.1562 142.461 52.1986 142.188 52.2832C141.914 52.3678 141.689 52.4883 141.514 52.6445C141.338 52.7943 141.208 52.9701 141.123 53.1719C141.045 53.3737 141.006 53.5951 141.006 53.8359C141.006 54.0768 141.061 54.2949 141.172 54.4902C141.283 54.679 141.442 54.8288 141.65 54.9395C141.859 55.0436 142.103 55.0957 142.383 55.0957C142.806 55.0957 143.174 55.0111 143.486 54.8418C143.799 54.6725 144.04 54.4642 144.209 54.2168C144.385 53.9694 144.476 53.735 144.482 53.5137L145.225 54.7051C145.12 54.972 144.977 55.2487 144.795 55.5352C144.619 55.8216 144.395 56.0918 144.121 56.3457C143.848 56.5931 143.519 56.7982 143.135 56.9609C142.751 57.1172 142.295 57.1953 141.768 57.1953C141.097 57.1953 140.488 57.0618 139.941 56.7949C139.401 56.5215 138.971 56.1471 138.652 55.6719C138.34 55.1901 138.184 54.6432 138.184 54.0312C138.184 53.4779 138.288 52.9863 138.496 52.5566C138.704 52.127 139.01 51.7656 139.414 51.4727C139.824 51.1732 140.335 50.9486 140.947 50.7988C141.559 50.6426 142.269 50.5645 143.076 50.5645H144.707ZM152.148 48.7383V57H149.336V46.4336H151.982L152.148 48.7383ZM155.332 46.3652L155.283 48.9727C155.146 48.9531 154.98 48.9368 154.785 48.9238C154.596 48.9043 154.424 48.8945 154.268 48.8945C153.87 48.8945 153.525 48.9466 153.232 49.0508C152.946 49.1484 152.705 49.2949 152.51 49.4902C152.321 49.6855 152.178 49.9232 152.08 50.2031C151.989 50.4831 151.937 50.8021 151.924 51.1602L151.357 50.9844C151.357 50.3008 151.426 49.6725 151.562 49.0996C151.699 48.5202 151.898 48.0156 152.158 47.5859C152.425 47.1562 152.751 46.8242 153.135 46.5898C153.519 46.3555 153.958 46.2383 154.453 46.2383C154.609 46.2383 154.769 46.2513 154.932 46.2773C155.094 46.2969 155.228 46.3262 155.332 46.3652ZM160.83 54.998C161.175 54.998 161.481 54.9329 161.748 54.8027C162.015 54.666 162.223 54.4772 162.373 54.2363C162.529 53.9889 162.611 53.6992 162.617 53.3672H165.264C165.257 54.1094 165.059 54.7702 164.668 55.3496C164.277 55.9225 163.753 56.375 163.096 56.707C162.438 57.0326 161.702 57.1953 160.889 57.1953C160.068 57.1953 159.352 57.0586 158.74 56.7852C158.135 56.5117 157.63 56.1341 157.227 55.6523C156.823 55.1641 156.52 54.5977 156.318 53.9531C156.117 53.3021 156.016 52.6055 156.016 51.8633V51.5801C156.016 50.8314 156.117 50.1348 156.318 49.4902C156.52 48.8392 156.823 48.2728 157.227 47.791C157.63 47.3027 158.135 46.9219 158.74 46.6484C159.346 46.375 160.055 46.2383 160.869 46.2383C161.735 46.2383 162.493 46.4043 163.145 46.7363C163.802 47.0684 164.316 47.5436 164.688 48.1621C165.065 48.7741 165.257 49.5 165.264 50.3398H162.617C162.611 49.9883 162.536 49.6693 162.393 49.3828C162.256 49.0964 162.054 48.8685 161.787 48.6992C161.527 48.5234 161.204 48.4355 160.82 48.4355C160.41 48.4355 160.075 48.5234 159.814 48.6992C159.554 48.8685 159.352 49.1029 159.209 49.4023C159.066 49.6953 158.965 50.0306 158.906 50.4082C158.854 50.7793 158.828 51.1699 158.828 51.5801V51.8633C158.828 52.2734 158.854 52.6673 158.906 53.0449C158.958 53.4225 159.056 53.7578 159.199 54.0508C159.349 54.3438 159.554 54.5749 159.814 54.7441C160.075 54.9134 160.413 54.998 160.83 54.998ZM169.639 42V57H166.826V42H169.639ZM169.238 51.3457H168.467C168.473 50.61 168.571 49.9329 168.76 49.3145C168.949 48.6895 169.219 48.1491 169.57 47.6934C169.922 47.2311 170.342 46.873 170.83 46.6191C171.325 46.3652 171.872 46.2383 172.471 46.2383C172.992 46.2383 173.464 46.3132 173.887 46.4629C174.316 46.6061 174.684 46.8405 174.99 47.166C175.303 47.485 175.544 47.9049 175.713 48.4258C175.882 48.9466 175.967 49.5781 175.967 50.3203V57H173.135V50.3008C173.135 49.832 173.066 49.4642 172.93 49.1973C172.799 48.9238 172.607 48.7318 172.354 48.6211C172.106 48.5039 171.8 48.4453 171.436 48.4453C171.032 48.4453 170.687 48.5202 170.4 48.6699C170.12 48.8197 169.896 49.028 169.727 49.2949C169.557 49.5553 169.434 49.8613 169.355 50.2129C169.277 50.5645 169.238 50.9421 169.238 51.3457ZM185.85 48.6699H187.354C187.835 48.6699 188.232 48.5885 188.545 48.4258C188.857 48.2565 189.089 48.0221 189.238 47.7227C189.395 47.4167 189.473 47.0618 189.473 46.6582C189.473 46.2936 189.401 45.9714 189.258 45.6914C189.121 45.4049 188.91 45.1836 188.623 45.0273C188.337 44.8646 187.975 44.7832 187.539 44.7832C187.194 44.7832 186.875 44.8516 186.582 44.9883C186.289 45.125 186.055 45.3171 185.879 45.5645C185.703 45.8118 185.615 46.1113 185.615 46.4629H182.793C182.793 45.6816 183.001 45.0013 183.418 44.4219C183.841 43.8424 184.408 43.39 185.117 43.0645C185.827 42.7389 186.608 42.5762 187.461 42.5762C188.424 42.5762 189.268 42.7324 189.99 43.0449C190.713 43.3509 191.276 43.8034 191.68 44.4023C192.083 45.0013 192.285 45.7435 192.285 46.6289C192.285 47.0781 192.181 47.5143 191.973 47.9375C191.764 48.3542 191.465 48.7318 191.074 49.0703C190.69 49.4023 190.221 49.6693 189.668 49.8711C189.115 50.0664 188.493 50.1641 187.803 50.1641H185.85V48.6699ZM185.85 50.8086V49.3535H187.803C188.577 49.3535 189.258 49.4414 189.844 49.6172C190.43 49.793 190.921 50.0469 191.318 50.3789C191.715 50.7044 192.015 51.0918 192.217 51.541C192.419 51.9837 192.52 52.4753 192.52 53.0156C192.52 53.6797 192.393 54.2721 192.139 54.793C191.885 55.3073 191.527 55.7435 191.064 56.1016C190.609 56.4596 190.075 56.7331 189.463 56.9219C188.851 57.1042 188.184 57.1953 187.461 57.1953C186.862 57.1953 186.273 57.1139 185.693 56.9512C185.12 56.7819 184.6 56.5312 184.131 56.1992C183.669 55.8607 183.298 55.4375 183.018 54.9297C182.744 54.4154 182.607 53.8066 182.607 53.1035H185.43C185.43 53.4681 185.521 53.7936 185.703 54.0801C185.885 54.3665 186.136 54.5911 186.455 54.7539C186.781 54.9167 187.142 54.998 187.539 54.998C187.988 54.998 188.372 54.9167 188.691 54.7539C189.017 54.5846 189.264 54.3503 189.434 54.0508C189.609 53.7448 189.697 53.39 189.697 52.9863C189.697 52.4655 189.603 52.0488 189.414 51.7363C189.225 51.4173 188.955 51.1829 188.604 51.0332C188.252 50.8835 187.835 50.8086 187.354 50.8086H185.85ZM201.309 42.752V57H198.496V45.9941L195.117 47.0684V44.8516L201.006 42.752H201.309Z" fill="#FFBF00"/>
<path d="M2 6.82037C8.48826 29.2649 30.9763 45.3363 53.4676 42.224" stroke="#FFBF00" stroke-width="3" stroke-linecap="round"/>
<path d="M47.9149 35.0187C48.7948 35.6489 57.7595 40.9841 57.0315 41.967C55.0846 44.5955 52.7205 46.6592 50.9291 49.4856" stroke="#FFBF00" stroke-width="3" stroke-linecap="round"/>
</svg>
