<svg version="1.2" xmlns="http://www.w3.org/2000/svg" viewBox="0 0 237 62" width="180" height="47">
	<title>presale-btn-svg</title>
	<style>
		.s0 { fill: #ffffff } 
		.s1 { fill: #ffbf00 } 
		.s2 { fill: none;stroke: #ffbf00;stroke-linecap: round;stroke-width: 3 } 
	</style>
	<path id="Layer" fill-rule="evenodd" class="s0" d="m83.4 26.6v0.6q0 1.7-0.5 2.9-0.4 1.3-1.2 2.2-0.8 0.9-1.9 1.4-1.1 0.5-2.5 0.5-1.3 0-2.4-0.5-1.1-0.5-2-1.4-0.8-0.9-1.2-2.2-0.5-1.2-0.5-2.9v-0.6q0-1.7 0.5-3 0.4-1.2 1.2-2.1 0.8-1 1.9-1.4 1.2-0.5 2.5-0.5 1.3 0 2.4 0.5 1.2 0.4 2 1.4 0.8 0.9 1.2 2.1 0.5 1.3 0.5 3zm-3 0.6v-0.7q0-1.1-0.2-2-0.2-0.8-0.6-1.4-0.4-0.6-1-0.9-0.6-0.3-1.3-0.3-0.7 0-1.3 0.3-0.6 0.3-1 0.9-0.4 0.6-0.6 1.4-0.2 0.9-0.2 2v0.7q0 1.2 0.2 2 0.2 0.9 0.6 1.5 0.4 0.6 1 0.9 0.6 0.3 1.3 0.3 0.8 0 1.3-0.3 0.6-0.3 1-0.9 0.4-0.6 0.6-1.5 0.2-0.8 0.2-2zm11.1-3.8h2.9v10.6h-2.7l-0.1-1.1q-0.4 0.6-1.1 0.9-0.8 0.4-1.8 0.4-0.7 0-1.4-0.2-0.6-0.2-1.1-0.7-0.5-0.5-0.7-1.2-0.3-0.8-0.3-1.8v-6.9h2.8v6.9q0 0.4 0.1 0.8 0.2 0.3 0.4 0.5 0.2 0.2 0.4 0.3 0.3 0.1 0.7 0.1 0.8 0 1.3-0.4 0.4-0.3 0.6-0.7zm7.8 10.6h-2.8v-10.6h2.7v1.3q0.1-0.1 0.1-0.1 0.4-0.7 1-1 0.6-0.4 1.3-0.4 0.3 0 0.5 0.1 0.2 0 0.4 0v2.6q-0.3 0-0.5 0-0.3 0-0.6 0-0.6 0-1 0.1-0.4 0.2-0.7 0.5-0.2 0.2-0.4 0.5zm15.2-5.1h-2.6v5.1h-2.9v-14.2h5.5q1.7 0 2.9 0.6 1.2 0.6 1.8 1.6 0.7 1.1 0.7 2.5 0 1.3-0.7 2.3-0.6 1-1.8 1.6-1.2 0.5-2.9 0.5zm-2.6 0v-2.2h-1v2.2zm2.6-2.2q0.8 0 1.4-0.3 0.5-0.3 0.7-0.8 0.3-0.5 0.3-1.1 0-0.7-0.3-1.2-0.2-0.6-0.7-0.9-0.6-0.3-1.4-0.3h-2.6v4.6zm10 7.3h-2.8v-10.6h2.6l0.1 1.3q0.1 0 0.1-0.1 0.4-0.7 1-1 0.6-0.4 1.3-0.4 0.2 0 0.5 0.1 0.2 0 0.4 0.1l-0.1 2.6q-0.2-0.1-0.5-0.1-0.3 0-0.5 0-0.6 0-1 0.2-0.5 0.1-0.8 0.4-0.2 0.2-0.3 0.5zm9.2 0.2q-1.3 0-2.2-0.4-1-0.4-1.7-1.1-0.7-0.7-1-1.6-0.4-0.9-0.4-2v-0.4q0-1.2 0.3-2.2 0.4-1 1-1.7 0.7-0.7 1.6-1.1 0.9-0.4 2.1-0.4 1.1 0 1.9 0.3 0.9 0.4 1.5 1.1 0.6 0.7 0.9 1.6 0.3 1 0.3 2.1v1.2h-6.7q0 0.4 0.1 0.7 0.2 0.5 0.5 0.9 0.4 0.4 0.8 0.6 0.5 0.2 1.1 0.2 0.8 0 1.5-0.3 0.6-0.3 1.1-0.9l1.4 1.5q-0.4 0.5-0.9 0.9-0.6 0.5-1.4 0.8-0.8 0.2-1.8 0.2zm-2.4-4.6q-0.1-0.2-0.1-0.5v-0.4q0-0.5 0.1-1h-1.7v1.9zm4-1.9v-0.2q0-0.6-0.2-1-0.2-0.5-0.7-0.8-0.4-0.2-1-0.2-0.6 0-1 0.2-0.4 0.3-0.6 0.7-0.3 0.4-0.4 1 0 0.2-0.1 0.3zm10.1 3.4q0-0.3-0.2-0.5-0.1-0.3-0.6-0.5-0.5-0.2-1.4-0.4-0.8-0.1-1.5-0.4-0.6-0.3-1.2-0.7-0.5-0.3-0.7-0.9-0.3-0.5-0.3-1.2 0-0.6 0.3-1.2 0.3-0.6 0.8-1 0.5-0.5 1.3-0.8 0.8-0.2 1.8-0.2 1.4 0 2.4 0.4 1 0.5 1.5 1.2 0.5 0.8 0.5 1.8h-2.8q0-0.4-0.2-0.8-0.1-0.3-0.5-0.5-0.3-0.2-0.9-0.2-0.5 0-0.8 0.2-0.4 0.1-0.5 0.4-0.2 0.3-0.2 0.6 0 0.2 0.1 0.4 0.1 0.2 0.3 0.4 0.2 0.1 0.6 0.3 0.4 0.1 1 0.2 1.1 0.2 2 0.6 0.9 0.4 1.4 1 0.6 0.7 0.6 1.7 0 0.7-0.4 1.3-0.3 0.6-0.9 1-0.5 0.5-1.4 0.7-0.8 0.2-1.8 0.2-1.5 0-2.5-0.5-1-0.5-1.5-1.3-0.6-0.9-0.6-1.7h2.7q0 0.6 0.3 0.9 0.3 0.4 0.7 0.5 0.5 0.2 1 0.2 0.5 0 0.9-0.2 0.3-0.1 0.5-0.4 0.2-0.2 0.2-0.6zm10.3-4.2q0-0.5-0.2-0.8-0.2-0.4-0.5-0.6-0.3-0.2-0.9-0.2-0.5 0-0.8 0.2-0.3 0.1-0.5 0.4-0.2 0.3-0.2 0.7h-2.8q0-0.7 0.3-1.3 0.3-0.6 0.9-1 0.6-0.5 1.4-0.8 0.8-0.2 1.9-0.2 1.2 0 2.2 0.4 0.9 0.4 1.5 1.2 0.5 0.8 0.5 2.1v4.5q0 0.9 0.1 1.4 0.1 0.6 0.3 1v0.1h-2.8q-0.2-0.4-0.3-1-0.2 0.2-0.3 0.4-0.4 0.4-1 0.6-0.6 0.2-1.4 0.2-1 0-1.8-0.4-0.8-0.4-1.3-1.1-0.5-0.7-0.5-1.6 0-0.9 0.3-1.5 0.4-0.7 1-1.1 0.6-0.4 1.5-0.7 0.9-0.2 2.1-0.2h1.3zm-1.2 2.2q-0.6 0-1 0.2-0.4 0.1-0.6 0.3-0.3 0.3-0.4 0.6-0.1 0.3-0.1 0.6 0 0.4 0.1 0.7 0.2 0.3 0.5 0.4 0.3 0.2 0.7 0.2 0.7 0 1.1-0.3 0.5-0.2 0.8-0.6 0-0.1 0.1-0.2v-1.9zm9.1-10.1v15h-2.8v-15zm7.2 15.2q-1.2 0-2.2-0.4-1-0.4-1.7-1.1-0.6-0.7-1-1.6-0.4-1-0.4-2v-0.4q0-1.2 0.4-2.2 0.3-1 1-1.7 0.6-0.8 1.5-1.2 0.9-0.4 2.1-0.4 1.1 0 2 0.4 0.8 0.4 1.4 1.1 0.6 0.6 0.9 1.6 0.3 0.9 0.3 2.1v1.2h-6.7q0 0.3 0.1 0.6 0.2 0.6 0.5 1 0.4 0.4 0.9 0.6 0.5 0.2 1.1 0.2 0.7 0 1.4-0.3 0.7-0.3 1.1-0.9l1.4 1.5q-0.3 0.4-0.9 0.9-0.6 0.4-1.4 0.7-0.8 0.3-1.8 0.3zm-2.4-4.6q0-0.3 0-0.5v-0.4q0-0.5 0-1h-1.7v1.9zm4-1.9v-0.2q0-0.6-0.2-1.1-0.2-0.4-0.6-0.7-0.4-0.3-1.1-0.3-0.6 0-1 0.3-0.4 0.2-0.6 0.7-0.3 0.4-0.4 1 0 0.1 0 0.3zm19 4v2.3h-9.5v-14.2h9.5v2.3h-6.6v3.5h5.6v2.2h-5.6v3.9zm4.3 2.3h-2.8v-10.6h2.6l0.1 1.3q0.1 0 0.1-0.1 0.5-0.7 1.3-1 0.7-0.4 1.7-0.4 0.7 0 1.3 0.2 0.7 0.3 1.1 0.7 0.4 0.5 0.7 1.3 0.2 0.7 0.2 1.9v6.7h-2.8v-6.8q0-0.7-0.2-1.1-0.2-0.3-0.6-0.5-0.3-0.2-0.9-0.2-0.6 0-1 0.3-0.4 0.2-0.7 0.6 0 0.1-0.1 0.2zm14.7-15h2.8v15h-2.5l-0.2-1.1q-0.4 0.6-1 0.9-0.7 0.4-1.7 0.4-1 0-1.7-0.4-0.8-0.4-1.3-1.1-0.5-0.8-0.8-1.7-0.3-1-0.3-2.2v-0.2q0-1.2 0.3-2.2 0.3-1 0.8-1.7 0.5-0.7 1.3-1.1 0.8-0.4 1.8-0.4 0.9 0 1.6 0.4 0.5 0.3 0.9 0.8zm-3.9 9.6v0.2q0 0.7 0.1 1.3 0.1 0.5 0.4 1 0.2 0.4 0.6 0.6 0.4 0.3 0.9 0.3 0.8 0 1.2-0.4 0.5-0.3 0.8-0.9 0.2-0.5 0.2-1.3v-1.3q0-0.6-0.1-1.1-0.2-0.5-0.4-0.8-0.3-0.4-0.7-0.6-0.4-0.2-0.9-0.2-0.6 0-1 0.3-0.4 0.2-0.6 0.7-0.2 0.4-0.4 1-0.1 0.6-0.1 1.2zm14.6 2.5q0-0.3-0.1-0.6-0.2-0.2-0.7-0.4-0.5-0.2-1.3-0.4-0.8-0.2-1.5-0.5-0.7-0.2-1.2-0.6-0.5-0.4-0.8-0.9-0.3-0.5-0.3-1.2 0-0.7 0.3-1.3 0.3-0.5 0.8-1 0.6-0.5 1.4-0.7 0.7-0.3 1.7-0.3 1.4 0 2.4 0.5 1 0.4 1.5 1.2 0.6 0.7 0.6 1.7h-2.9q0-0.4-0.1-0.7-0.2-0.3-0.6-0.5-0.3-0.2-0.9-0.2-0.5 0-0.8 0.1-0.3 0.2-0.5 0.5-0.2 0.2-0.2 0.6 0 0.2 0.1 0.4 0.1 0.2 0.3 0.3 0.3 0.2 0.6 0.3 0.4 0.2 1 0.3 1.1 0.2 2 0.6 0.9 0.3 1.5 1 0.5 0.6 0.5 1.7 0 0.7-0.3 1.2-0.3 0.6-0.9 1.1-0.6 0.4-1.4 0.6-0.8 0.3-1.9 0.3-1.4 0-2.5-0.5-1-0.6-1.5-1.4-0.5-0.8-0.5-1.7h2.6q0.1 0.6 0.3 1 0.3 0.3 0.7 0.5 0.5 0.1 1 0.1 0.5 0 0.9-0.1 0.4-0.2 0.6-0.4 0.1-0.3 0.1-0.6zm-118.1 18.4v0.7q0 1.6-0.4 2.9-0.5 1.3-1.3 2.2-0.8 0.9-1.9 1.4-1.1 0.5-2.4 0.5-1.4 0-2.5-0.5-1.1-0.5-1.9-1.4-0.8-0.9-1.3-2.2-0.4-1.3-0.4-2.9v-0.7q0-1.6 0.4-2.9 0.5-1.3 1.3-2.2 0.8-0.9 1.9-1.3 1.1-0.5 2.4-0.5 1.4 0 2.5 0.5 1.1 0.4 1.9 1.3 0.8 0.9 1.3 2.2 0.4 1.3 0.4 2.9zm-2.9 0.7v-0.7q0-1.1-0.3-2-0.2-0.8-0.6-1.4-0.4-0.6-0.9-0.9-0.6-0.3-1.4-0.3-0.7 0-1.3 0.3-0.5 0.3-0.9 0.9-0.4 0.6-0.6 1.4-0.2 0.9-0.2 2v0.7q0 1.1 0.2 2 0.2 0.9 0.6 1.5 0.4 0.6 0.9 0.9 0.6 0.3 1.4 0.3 0.7 0 1.3-0.3 0.6-0.3 1-0.9 0.3-0.6 0.5-1.5 0.3-0.9 0.3-2zm7.6 6.8h-2.8v-10.6h2.6l0.1 1.3q0.1-0.1 0.1-0.1 0.5-0.7 1.3-1 0.7-0.4 1.7-0.4 0.7 0 1.3 0.2 0.7 0.3 1.1 0.7 0.4 0.5 0.7 1.3 0.2 0.7 0.2 1.8v6.8h-2.8v-6.8q0-0.7-0.2-1.1-0.2-0.3-0.6-0.5-0.4-0.2-0.9-0.2-0.6 0-1 0.3-0.4 0.2-0.7 0.6 0 0.1-0.1 0.2z"/>
	<path id="Layer" class="s1" d="m122.6 42.8h2.5l3.7 10.4 3.6-10.4h2.5l-5.1 14.2h-2zm-1.4 0h2.5l0.4 10.2v4h-2.9zm12.5 0h2.5v14.2h-3v-4zm10.6 11.8v-4.7q0-0.5-0.1-0.8-0.2-0.4-0.6-0.6-0.3-0.2-0.8-0.2-0.5 0-0.9 0.1-0.3 0.2-0.5 0.5-0.2 0.3-0.2 0.7h-2.8q0-0.7 0.3-1.3 0.3-0.6 0.9-1.1 0.6-0.4 1.5-0.7 0.8-0.2 1.8-0.2 1.2 0 2.2 0.4 1 0.4 1.5 1.2 0.6 0.8 0.6 2v4.6q0 0.8 0.1 1.4 0.1 0.5 0.3 0.9v0.2h-2.9q-0.2-0.4-0.3-1.1-0.1-0.6-0.1-1.3zm0.4-4v1.6h-1.6q-0.5 0-0.9 0.1-0.4 0.1-0.7 0.4-0.3 0.2-0.4 0.5-0.1 0.3-0.1 0.6 0 0.4 0.2 0.7 0.1 0.3 0.4 0.5 0.4 0.1 0.8 0.1 0.6 0 1.1-0.2 0.4-0.3 0.7-0.7 0.3-0.3 0.3-0.7l0.7 1.2q-0.1 0.4-0.4 0.8-0.3 0.5-0.7 0.9-0.4 0.3-1 0.6-0.6 0.2-1.3 0.2-1.1 0-1.9-0.4-0.8-0.4-1.3-1.1-0.4-0.7-0.4-1.7 0-0.8 0.3-1.4 0.3-0.7 0.9-1.1 0.6-0.5 1.5-0.7 1-0.2 2.2-0.2zm7.4-1.8v8.2h-2.8v-10.6h2.6zm3.2-2.3v2.6q-0.2 0-0.5-0.1-0.3 0-0.5 0-0.6 0-1.1 0.2-0.4 0.1-0.7 0.4-0.3 0.3-0.4 0.7-0.2 0.4-0.2 1l-0.6-0.2q0-1 0.3-1.9 0.2-0.9 0.5-1.5 0.4-0.6 1-1 0.6-0.4 1.3-0.4 0.3 0 0.5 0.1 0.3 0 0.4 0.1zm5.5 8.6q0.5 0 0.9-0.2 0.4-0.2 0.7-0.6 0.2-0.3 0.2-0.8h2.7q-0.1 1.1-0.6 2-0.6 0.8-1.6 1.3-1 0.5-2.2 0.5-1.3 0-2.2-0.4-0.9-0.4-1.5-1.1-0.6-0.8-0.9-1.7-0.3-1-0.3-2.1v-0.3q0-1.1 0.3-2.1 0.3-1 0.9-1.7 0.6-0.7 1.5-1.1 0.9-0.5 2.2-0.5 1.3 0 2.2 0.5 1 0.5 1.6 1.5 0.5 0.9 0.6 2.1h-2.7q0-0.5-0.2-0.9-0.2-0.4-0.6-0.7-0.4-0.3-1-0.3-0.6 0-1 0.3-0.4 0.3-0.6 0.7-0.2 0.5-0.3 1-0.1 0.6-0.1 1.2v0.3q0 0.6 0.1 1.2 0.1 0.5 0.3 1 0.2 0.4 0.6 0.7 0.4 0.2 1 0.2zm8.8-13v15h-2.8v-15zm-0.4 9.4h-0.8q0.1-1.1 0.3-2.1 0.3-0.9 0.8-1.6 0.6-0.7 1.3-1.1 0.8-0.4 1.6-0.4 0.8 0 1.5 0.3 0.6 0.2 1.1 0.7 0.4 0.5 0.7 1.2 0.2 0.8 0.2 1.9v6.7h-2.8v-6.7q0-0.7-0.2-1.1-0.2-0.4-0.6-0.6-0.3-0.1-0.9-0.1-0.6 0-1 0.2-0.4 0.2-0.7 0.6-0.2 0.4-0.4 0.9-0.1 0.5-0.1 1.2zm16.6-2.7h1.5q0.8 0 1.2-0.3 0.5-0.2 0.7-0.7 0.3-0.4 0.3-1 0-0.6-0.3-1-0.2-0.4-0.6-0.7-0.4-0.2-1.1-0.2-0.5 0-0.9 0.2-0.5 0.2-0.7 0.6-0.3 0.3-0.3 0.9h-2.8q0-1.2 0.6-2.1 0.6-0.8 1.7-1.3 1.1-0.5 2.3-0.5 1.5 0 2.6 0.5 1.1 0.4 1.7 1.3 0.6 0.9 0.6 2.2 0 0.7-0.3 1.3-0.4 0.7-0.9 1.2-0.6 0.5-1.5 0.8-0.8 0.3-1.8 0.3h-2zm0 2.1v-1.4h2q1.1 0 2 0.2 0.9 0.3 1.5 0.8 0.6 0.5 0.9 1.1 0.3 0.7 0.3 1.5 0 1-0.4 1.8-0.4 0.8-1.1 1.3-0.6 0.5-1.6 0.8-0.9 0.3-2 0.3-0.9 0-1.7-0.2-0.9-0.3-1.6-0.8-0.7-0.5-1.1-1.3-0.4-0.7-0.4-1.8h2.8q0 0.6 0.3 1 0.3 0.4 0.7 0.7 0.5 0.2 1.1 0.2 0.7 0 1.2-0.2 0.5-0.3 0.7-0.7 0.3-0.5 0.3-1.1 0-0.8-0.3-1.3-0.3-0.4-0.8-0.7-0.5-0.2-1.3-0.2zm15.5-8v14.2h-2.8v-11l-3.4 1.1v-2.2l5.9-2.1z"/>
	<path id="Layer" fill-rule="evenodd" class="s2" d="m2 6.8c6.5 22.5 29 38.5 51.5 35.4"/>
	<path id="Layer" fill-rule="evenodd" class="s2" d="m47.9 35c0.9 0.6 9.9 6 9.1 7-1.9 2.6-4.3 4.7-6.1 7.5"/>
</svg>